<svg xmlns="http://www.w3.org/2000/svg" width="32" height="32"><rect width="32" height="32" rx="3" fill="#152231"/><rect x="14" y="4" width="2" height="3" fill="#f59a63"/><rect x="4" y="7" width="2" height="3" fill="#f59a63"/><rect x="14" y="7" width="2" height="3" fill="#f59a63"/><rect x="24" y="7" width="2" height="3" fill="#f59a63"/><rect x="6" y="10" width="2" height="3" fill="#f59a63"/><rect x="12" y="10" width="2" height="3" fill="#f59a63"/><rect x="14" y="10" width="2" height="3" fill="#f59a63"/><rect x="16" y="10" width="2" height="3" fill="#f59a63"/><rect x="22" y="10" width="2" height="3" fill="#f59a63"/><rect x="8" y="13" width="2" height="3" fill="#f59a63"/><rect x="10" y="13" width="2" height="3" fill="#f59a63"/><rect x="12" y="13" width="2" height="3" fill="#f7e9bd"/><rect x="14" y="13" width="2" height="3" fill="#f7e9bd"/><rect x="16" y="13" width="2" height="3" fill="#f7e9bd"/><rect x="18" y="13" width="2" height="3" fill="#f59a63"/><rect x="20" y="13" width="2" height="3" fill="#f59a63"/><rect x="0" y="16" width="2" height="3" fill="#f59a63"/><rect x="2" y="16" width="2" height="3" fill="#f59a63"/><rect x="4" y="16" width="2" height="3" fill="#f59a63"/><rect x="6" y="16" width="2" height="3" fill="#f59a63"/><rect x="8" y="16" width="2" height="3" fill="#f59a63"/><rect x="10" y="16" width="2" height="3" fill="#f59a63"/><rect x="12" y="16" width="2" height="3" fill="#f7e9bd"/><rect x="14" y="16" width="2" height="3" fill="#f7e9bd"/><rect x="16" y="16" width="2" height="3" fill="#f7e9bd"/><rect x="18" y="16" width="2" height="3" fill="#f59a63"/><rect x="20" y="16" width="2" height="3" fill="#f59a63"/><rect x="22" y="16" width="2" height="3" fill="#f59a63"/><rect x="24" y="16" width="2" height="3" fill="#f59a63"/><rect x="26" y="16" width="2" height="3" fill="#f59a63"/><rect x="28" y="16" width="2" height="3" fill="#f59a63"/><rect x="8" y="19" width="2" height="3" fill="#f59a63"/><rect x="10" y="19" width="2" height="3" fill="#f59a63"/><rect x="12" y="19" width="2" height="3" fill="#f7e9bd"/><rect x="14" y="19" width="2" height="3" fill="#f7e9bd"/><rect x="16" y="19" width="2" height="3" fill="#f7e9bd"/><rect x="18" y="19" width="2" height="3" fill="#f59a63"/><rect x="20" y="19" width="2" height="3" fill="#f59a63"/><rect x="6" y="22" width="2" height="3" fill="#f59a63"/><rect x="12" y="22" width="2" height="3" fill="#f59a63"/><rect x="14" y="22" width="2" height="3" fill="#f59a63"/><rect x="16" y="22" width="2" height="3" fill="#f59a63"/><rect x="22" y="22" width="2" height="3" fill="#f59a63"/><rect x="4" y="25" width="2" height="3" fill="#f59a63"/><rect x="14" y="25" width="2" height="3" fill="#f59a63"/><rect x="24" y="25" width="2" height="3" fill="#f59a63"/></svg>