<svg xmlns="http://www.w3.org/2000/svg" width="32" height="32" viewBox="0 0 32 32"><rect width="32" height="32" rx="3" fill="#152231"/><rect x="13" y="5" width="3" height="3" fill="#d4ba7a"/><rect x="16" y="5" width="3" height="3" fill="#d4ba7a"/><rect x="10" y="8" width="3" height="3" fill="#d4ba7a"/><rect x="13" y="8" width="3" height="3" fill="#d4ba7a"/><rect x="16" y="8" width="3" height="3" fill="#d4ba7a"/><rect x="19" y="8" width="3" height="3" fill="#d4ba7a"/><rect x="7" y="11" width="3" height="3" fill="#d4ba7a"/><rect x="10" y="11" width="3" height="3" fill="#d4ba7a"/><rect x="13" y="11" width="3" height="3" fill="#d4ba7a"/><rect x="16" y="11" width="3" height="3" fill="#d4ba7a"/><rect x="19" y="11" width="3" height="3" fill="#d4ba7a"/><rect x="22" y="11" width="3" height="3" fill="#d4ba7a"/><rect x="4" y="14" width="3" height="3" fill="#d4ba7a"/><rect x="7" y="14" width="3" height="3" fill="#d4ba7a"/><rect x="10" y="14" width="3" height="3" fill="#d4ba7a"/><rect x="13" y="14" width="3" height="3" fill="#d4ba7a"/><rect x="16" y="14" width="3" height="3" fill="#d4ba7a"/><rect x="19" y="14" width="3" height="3" fill="#d4ba7a"/><rect x="22" y="14" width="3" height="3" fill="#d4ba7a"/><rect x="25" y="14" width="3" height="3" fill="#d4ba7a"/><rect x="4" y="17" width="3" height="3" fill="#d4ba7a"/><rect x="7" y="17" width="3" height="3" fill="#d4ba7a"/><rect x="10" y="17" width="3" height="3" fill="#d4ba7a"/><rect x="13" y="17" width="3" height="3" fill="#d4ba7a"/><rect x="16" y="17" width="3" height="3" fill="#d4ba7a"/><rect x="19" y="17" width="3" height="3" fill="#d4ba7a"/><rect x="22" y="17" width="3" height="3" fill="#d4ba7a"/><rect x="25" y="17" width="3" height="3" fill="#d4ba7a"/><rect x="7" y="20" width="3" height="3" fill="#d4ba7a"/><rect x="10" y="20" width="3" height="3" fill="#d4ba7a"/><rect x="13" y="20" width="3" height="3" fill="#d4ba7a"/><rect x="16" y="20" width="3" height="3" fill="#d4ba7a"/><rect x="19" y="20" width="3" height="3" fill="#d4ba7a"/><rect x="22" y="20" width="3" height="3" fill="#d4ba7a"/><rect x="10" y="23" width="3" height="3" fill="#d4ba7a"/><rect x="13" y="23" width="3" height="3" fill="#d4ba7a"/><rect x="16" y="23" width="3" height="3" fill="#d4ba7a"/><rect x="19" y="23" width="3" height="3" fill="#d4ba7a"/></svg>